# xmcd CD database file
#
# Track frame offsets:
#	150
#	24657
#	44535
#	66740
#	94254
#	116647
#	144143
#	165265
#	183364
#
# Disc length: 2694 seconds
#
# Revision: 0
# Processed by: cddbd v1.5.2PL0 Copyright (c) Steve Scherf et al.
# Submitted via: CDex 1.51
#
DISCID=790a8409
DTITLE=Verve Jazz Ensemble - East End Sessions
DYEAR=2014
DGENRE=Jazz
TTITLE0=Sister Sadie
TTITLE1=Jitterbug Waltz
TTITLE2=You and the NIght and the Music
TTITLE3=My One and Only Love
TTITLE4=Flor de Lis
TTITLE5=East End Ave
TTITLE6=Corner Pocket
TTITLE7=Strollin' Meets Cute
TTITLE8=DIlly Dally Doodle
EXTD=YEAR: 2014
EXTT0=
EXTT1=
EXTT2=
EXTT3=
EXTT4=
EXTT5=
EXTT6=
EXTT7=
EXTT8=
PLAYORDER=
